<svg xmlns="http://www.w3.org/2000/svg" xmlns:xlink="http://www.w3.org/1999/xlink" xmlns:fi="http://pattern.flaticon.com/" x="0" y="0" width="700" height="350" viewBox="0 0 700 350"><rect x="0px" y="0px" width="100%" height="100%" opacity="1" fill="#ffffff"/><defs><g transform="matrix(0.12493922561407089 0 0 0.12493922561407089 160 110)" id="L1_0"><path d="m208.117188 96c-97.203126 0-176 78.796875-176 176s78.796874 176 176 176c97.203124 0 176-78.796875 176-176-.109376-97.15625-78.84375-175.890625-176-176zm0 336c-88.367188 0-160-71.632812-160-160s71.632812-160 160-160c88.363281 0 160 71.632812 160 160-.101563 88.324219-71.675782 159.898438-160 160zm0 0"/><path d="m371.085938 142.984375 12.367187-12.367187c3.121094-3.125 3.121094-8.1875 0-11.3125l-22.640625-22.640626c-3.125-3.125-8.1875-3.125-11.3125 0l-12.367188 12.367188c-30.246093-24.054688-66.625-39.164062-105.015624-43.605469v-17.425781h8c8.835937 0 16-7.164062 16-16v-16c0-8.835938-7.164063-16-16-16h-64c-8.835938 0-16 7.164062-16 16v16c0 8.835938 7.164062 16 16 16h8v17.425781c-38.390626 4.441407-74.769532 19.550781-105.015626 43.605469l-12.367187-12.367188c-3.125-3.125-8.191406-3.125-11.3125 0l-22.640625 22.640626c-3.125 3.125-3.125 8.1875 0 11.3125l12.367188 12.367187c-67.546876 85.167969-58.121094 207.984375 21.628906 281.851563 79.75 73.863281 202.929687 73.863281 282.679687 0 79.75-73.867188 89.175781-196.683594 21.628907-281.851563zm-15.929688-29.382813 11.359375 11.359376-5.832031 5.832031c-3.625-3.921875-7.402344-7.695313-11.328125-11.328125zm-179.039062-97.601562h64v16h-64zm24 32h16v16.199219c-2.65625-.09375-5.320313-.199219-8-.199219-2.679688 0-5.34375.105469-8 .199219zm-150.402344 76.960938 11.363281-11.359376 5.832031 5.832032c-3.921875 3.621094-7.699218 7.394531-11.328125 11.328125zm158.402344 339.039062c-106.039063 0-192-85.960938-192-192s85.960937-192 192-192c106.039062 0 192 85.960938 192 192-.125 105.988281-86.011719 191.875-192 192zm0 0"/><path d="m232.117188 272c0-13.253906-10.746094-24-24-24-13.253907 0-24 10.746094-24 24s10.746093 24 24 24c3.5625-.015625 7.078124-.835938 10.28125-2.398438l48.0625 48.0625 11.3125-11.3125-48.058594-48.070312c1.566406-3.203125 2.386718-6.71875 2.402344-10.28125zm-32 0c0-4.417969 3.582031-8 8-8 4.417968 0 8 3.582031 8 8s-3.582032 8-8 8c-4.417969 0-8-3.582031-8-8zm0 0"/><path d="m242.246094 148.601562-4.257813 15.398438c31.285157 8.679688 57.269531 30.496094 71.230469 59.804688 13.964844 29.308593 14.539062 63.230468 1.570312 92.996093l14.664063 6.398438c7.066406-16.140625 10.699219-33.578125 10.664063-51.199219-.09375-57.523438-38.460938-107.957031-93.871094-123.398438zm0 0"/><path d="m225.171875 145.128906c-5.652344-.753906-11.351563-1.128906-17.054687-1.128906v16c4.996093 0 9.988281.328125 14.945312.984375zm0 0"/></g><g transform="matrix(0.060210212067938904 -0.02709459509974221 0.02709459509974221 0.060210212067938904 -7.991335346513431 176.61592624777018)" id="L1_1"><path d="m246.210938 33.15625c4.144531-10.03125 1.035156-21.597656-7.578126-28.203125-8.617187-6.605469-20.59375-6.605469-29.207031 0s-11.722656 18.171875-7.582031 28.203125c-118.808594 11.828125-207.460938 114.757812-201.539062 234.007812 5.917968 119.246094 104.328124 212.894532 223.722656 212.894532 119.394531 0 217.804687-93.648438 223.726562-212.894532 5.917969-119.25-82.734375-222.179687-201.542968-234.007812zm-30.183594-9.101562c0-4.417969 3.582031-8 8-8 4.417968 0 8 3.582031 8 8 0 4.417968-3.582032 8-8 8-4.417969 0-8-3.582032-8-8zm8 440c-114.875 0-208-93.125-208-208s93.125-208 208-208 208 93.125 208 208c-.132813 114.820312-93.179688 207.867187-208 208zm0 0"/><path d="m224.027344 64.054688c-106.039063 0-192 85.960937-192 192 0 106.039062 85.960937 192 192 192 106.039062 0 192-85.960938 192-192-.121094-105.988282-86.011719-191.878907-192-192zm0 368c-97.199219 0-176-78.796876-176-176 0-97.203126 78.800781-176 176-176 97.203125 0 176 78.796874 176 176-.109375 97.15625-78.84375 175.890624-176 176zm0 0"/><path d="m216.027344 96.054688h16v16h-16zm0 0"/><path d="m105.234375 148.574219 11.316406-11.3125 11.3125 11.3125-11.3125 11.316406zm0 0"/><path d="m64.027344 248.054688h16v16h-16zm0 0"/><path d="m105.234375 363.535156 11.3125-11.3125 11.316406 11.3125-11.316406 11.3125zm0 0"/><path d="m216.027344 400.054688h16v16h-16zm0 0"/><path d="m320.195312 363.535156 11.3125-11.3125 11.3125 11.3125-11.3125 11.3125zm0 0"/><path d="m368.027344 248.054688h16v16h-16zm0 0"/><path d="m320.195312 148.574219 11.3125-11.3125 11.316407 11.3125-11.316407 11.316406zm0 0"/><path d="m232.027344 230.109375v-94.054687h-16v94.054687l-17.941406 17.945313h-78.058594v16h78.058594l20.285156 20.289062c3.125 3.121094 8.1875 3.121094 11.3125 0l22.632812-22.632812c3.125-3.125 3.125-8.1875 0-11.3125zm-8 37.265625-11.320313-11.320312 11.320313-11.320313 11.320312 11.320313zm0 0"/></g><g transform="matrix(0.08504662518537422 -0.011730569208998978 0.011730569208998978 0.08504662518537422 251.62051118521347 305.1423562673271)" id="L1_2"><path d="m242.351562 112.351562c-88.367187 0-160 71.632813-160 160 0 88.363282 71.632813 160 160 160 88.363282 0 160-71.636718 160-160-.101562-88.324218-71.679687-159.898437-160-160zm0 304c-79.53125 0-144-64.472656-144-144 0-79.53125 64.46875-144 144-144 79.527344 0 144 64.46875 144 144-.09375 79.488282-64.511718 143.90625-144 144zm0 0"/><path d="m250.351562 249.820312v-73.46875h-16v73.46875c-6.777343 2.421876-12.109374 7.753907-14.53125 14.53125h-57.46875v16h57.46875c3.703126 10.53125 14.191407 17.109376 25.28125 15.851563 11.09375-1.253906 19.847657-10.007813 21.101563-21.101563 1.257813-11.089843-5.320313-21.578124-15.851563-25.28125zm-8 30.53125c-4.417968 0-8-3.582031-8-8 0-4.417968 3.582032-8 8-8 4.417969 0 8 3.582032 8 8 0 4.417969-3.582031 8-8 8zm0 0"/><path d="m114.351562 264.351562h16v16h-16zm0 0"/><path d="m234.351562 384.351562h16v16h-16zm0 0"/><path d="m354.351562 264.351562h16v16h-16zm0 0"/><path d="m234.351562 144.351562h16v16h-16zm0 0"/><path d="m368.429688 416.964844c60.390624-52.582032 81.808593-137.121094 53.734374-212.113282-28.074218-74.992187-99.738281-124.6875-179.8125-124.6875-80.074218 0-151.742187 49.695313-179.816406 124.6875-28.070312 74.992188-6.65625 159.53125 53.734375 212.113282-16.578125 3.210937-27.808593 18.746094-25.660156 35.496094 2.152344 16.75 16.949219 28.941406 33.800781 27.855468 16.851563-1.085937 29.957032-15.078125 29.941406-31.964844-.019531-1.929687-.214843-3.851562-.585937-5.746093 55.5 28.992187 121.671875 28.992187 177.167969 0-.367188 1.894531-.5625 3.816406-.582032 5.746093-.019531 16.886719 13.085938 30.878907 29.9375 31.964844 16.851563 1.085938 31.648438-11.105468 33.800782-27.855468s-9.082032-32.285157-25.660156-35.496094zm-246.078126 47.386718c-8.839843 0-16-7.164062-16-16 0-8.839843 7.160157-16 16-16 8.835938 0 16 7.160157 16 16 0 8.835938-7.164062 16-16 16zm-56-192c0-97.203124 78.796876-176 176-176 97.199219 0 176 78.796876 176 176 0 97.199219-78.800781 176-176 176-97.15625-.113281-175.890624-78.84375-176-176zm296 192c-8.839843 0-16-7.164062-16-16 0-8.839843 7.160157-16 16-16 8.835938 0 16 7.160157 16 16 0 8.835938-7.164062 16-16 16zm0 0"/><path d="m31.390625 199.503906c2.121094-.003906 4.15625-.84375 5.65625-2.34375l124.457031-124.457031c3.121094-3.125 3.121094-8.1875 0-11.3125-6.765625-6.742187-14.585937-12.332031-23.152344-16.542969v-4.496094c0-13.257812 10.742188-24 24-24h160c13.253907 0 24 10.742188 24 24v4.496094c-8.570312 4.210938-16.390624 9.800782-23.152343 16.542969-3.125 3.125-3.125 8.1875 0 11.3125l124.453125 124.445313c3.125 3.125 8.191406 3.125 11.3125 0 34.3125-34.390626 34.3125-90.0625 0-124.453126l-11.3125-11.304687c-22.367188-22.316406-54.984375-30.929687-85.453125-22.558594-.816407-21.4375-18.398438-38.414062-39.847657-38.480469h-160c-21.453124.066407-39.035156 17.042969-39.847656 38.480469-30.472656-8.371093-63.089844.242188-85.457031 22.558594l-11.3125 11.3125c-34.3125 34.390625-34.3125 90.066406 0 124.457031 1.5 1.5 3.535156 2.339844 5.65625 2.34375zm404.953125-126.800781 11.308594 11.3125c25.933594 25.925781 28.234375 67.203125 5.347656 95.855469l-112.515625-112.511719c28.652344-22.890625 69.929687-20.589844 95.859375 5.34375zm-399.296875 11.3125 11.3125-11.3125c25.925781-25.933594 67.203125-28.234375 95.855469-5.34375l-112.511719 112.511719c-22.890625-28.652344-20.589844-69.929688 5.34375-95.855469zm0 0"/><path d="m18.351562 272.351562c.042969 51.296876 17.644532 101.03125 49.878907 140.933594l12.441406-10.078125c-29.9375-37.046875-46.285156-83.226562-46.320313-130.855469zm0 0"/><path d="m466.351562 272.351562h-16c-.035156 47.628907-16.382812 93.808594-46.320312 130.855469l12.4375 10.078125c32.234375-39.902344 49.839844-89.636718 49.882812-140.933594zm0 0"/><path d="m2.941406 363.183594c13.03125 34.121094 33.160156 65.089844 59.058594 90.847656l11.261719-11.359375c-24.269531-24.148437-43.140625-53.171875-55.367188-85.152344zm0 0"/><path d="m411.4375 442.671875 11.265625 11.359375c25.894531-25.761719 46.027344-56.726562 59.0625-90.847656l-14.953125-5.664063c-12.230469 31.980469-31.101562 61-55.375 85.152344zm0 0"/></g><g transform="matrix(0.0599885955452919 0 0 0.0599885955452919 295.121812501573 66.60273706912994)" id="L1_3"><path d="m247.769531 463.65625v-39.65625h-16v39.367188c-32.488281-4.613282-61.183593-37.039063-80.160156-85.445313 23.078125-9.855469 47.65625-15.738281 72.695313-17.402344l-1.070313-15.960937c-26.515625 1.839844-52.535156 8.074218-77 18.457031-11.792969-37.214844-17.984375-75.976563-18.359375-115.015625h103.894531v48h16v-48h48v-16h-48v-96.183594c29.402344-.964844 58.378907-7.328125 85.480469-18.777344 11.085938 34.714844 17.226562 70.816407 18.246094 107.242188l16-.5625c-1.042969-38.5625-7.632813-76.777344-19.566406-113.460938 16.917968-8.554687 32.761718-19.082031 47.199218-31.371093 41.839844 40.207031 66.386719 95.121093 68.441406 153.113281h-39.800781v16h39.726563c-.222656 7.660156-.835938 15.304688-1.839844 22.902344l15.847656 2.195312c9.511719-68.757812-11.1875-138.261718-56.761718-190.613281-45.574219-52.351563-111.5625-82.4296875-180.972657-82.484375-90.660156.0859375-173.53125 51.25-214.230469 132.261719-40.695312 81.011719-32.269531 178.042969 21.78125 250.824219 54.050782 72.785156 144.5 108.902343 233.816407 93.363281l-2.734375-15.769531c-10.132813 1.691406-20.367188 2.6875-30.632813 2.976562zm-119.894531-231.65625c.378906-39.027344 6.5625-77.777344 18.351562-114.984375 27.117188 11.464844 56.117188 17.839844 85.542969 18.800781v96.183594zm103.894531-215.367188v103.199219c-27.574219-.964843-54.734375-7.019531-80.105469-17.863281 18.976563-48.367188 47.640626-80.722656 80.105469-85.335938zm16 103.199219v-103.191406c32.230469 4.625 60.96875 36.917969 80 85.34375-25.34375 10.816406-52.464843 16.863281-80 17.832031zm135.414063-51.71875c-12.570313 10.464844-26.253906 19.523438-40.796875 27.015625-9.972657-27.382812-26.140625-52.085937-47.25-72.175781 32.355469 8.28125 62.441406 23.707031 88.046875 45.144531zm-246.109375 26.949219c-14.515625-7.476562-28.171875-16.519531-40.722657-26.964844 25.554688-21.402344 55.574219-36.816406 87.859376-45.113281-21.0625 20.070313-37.195313 44.738281-47.136719 72.078125zm-52.6875-16.175781c14.441406 12.273437 30.285156 22.796875 47.199219 31.34375-12.734376 39.351562-19.382813 80.414062-19.710938 121.769531h-95.90625c2.046875-57.988281 26.585938-112.902344 68.417969-153.113281zm-68.417969 169.113281h95.90625c.3125 41.410156 6.964844 82.53125 19.726562 121.929688-16.882812 8.53125-32.699218 19.035156-47.113281 31.285156-41.890625-40.21875-66.464843-95.175782-68.519531-153.214844zm80.511719 164c12.492187-10.515625 26.09375-19.636719 40.5625-27.199219 9.953125 27.371094 26.109375 52.070313 47.199219 72.160157-32.238282-8.265626-62.21875-23.625-87.761719-44.960938zm0 0"/><path d="m359.769531 240c-66.273437 0-120 53.726562-120 120s53.726563 120 120 120c66.273438 0 120-53.726562 120-120-.074219-66.242188-53.757812-119.925781-120-120zm0 224c-57.4375 0-104-46.5625-104-104s46.5625-104 104-104 104 46.5625 104 104c-.066406 57.410156-46.589843 103.933594-104 104zm0 0"/><path d="m367.769531 337.472656v-41.472656h-16v41.472656c-6.777343 2.417969-12.109375 7.75-14.527343 14.527344h-25.472657v16h25.472657c3.699218 10.53125 14.1875 17.109375 25.28125 15.855469 11.089843-1.257813 19.84375-10.007813 21.101562-21.101563 1.253906-11.09375-5.324219-21.582031-15.855469-25.28125zm-8 30.527344c-4.417969 0-8-3.582031-8-8s3.582031-8 8-8 8 3.582031 8 8-3.582031 8-8 8zm0 0"/><path d="m263.769531 352h16v16h-16zm0 0"/><path d="m351.769531 440h16v16h-16zm0 0"/><path d="m439.769531 352h16v16h-16zm0 0"/><path d="m351.769531 264h16v16h-16zm0 0"/></g><g transform="matrix(0.1071109308190775 -0.03800710551112434 0.03800710551112434 0.1071109308190775 105.74008901390653 234.37354489901193)" id="L1_4"><path d="m295.976562 417.136719v-36.335938c.019532-25.695312-11.214843-50.109375-30.738281-66.816406l-78.46875-67.273437c-1.773437-1.519532-2.792969-3.738282-2.792969-6.070313v-1.28125c-.003906-2.335937 1.015626-4.558594 2.792969-6.078125l78.46875-67.257812c19.523438-16.710938 30.753907-41.125 30.738281-66.824219v-36.335938c15.585938-4.011719 25.75-18.992187 23.71875-34.957031-2.03125-15.96875-15.625-27.9257812-31.71875-27.90625h-256c-16.09375-.0195312-29.6875 11.9375-31.722656 27.90625-2.03125 15.964844 8.136719 30.945312 23.722656 34.957031v36.335938c-.019531 25.695312 11.210938 50.109375 30.734376 66.816406l78.472656 67.273437c1.773437 1.519532 2.792968 3.738282 2.792968 6.070313v1.28125c0 2.335937-1.019531 4.558594-2.792968 6.078125l-78.472656 67.257812c-19.519532 16.710938-30.75 41.125-30.734376 66.824219v36.335938c-15.585937 4.011719-25.753906 18.992187-23.722656 34.957031 2.035156 15.96875 15.628906 27.925781 31.722656 27.90625h256c16.09375.019531 29.6875-11.9375 31.71875-27.90625 2.03125-15.964844-8.132812-30.945312-23.71875-34.957031zm-256-26.496094c17.796876-2.25 35.097657-7.429687 51.199219-15.328125 21.328125-10.671875 44.957031-15.933594 68.800781-15.3125 23.839844-.621094 47.46875 4.640625 68.800782 15.3125 16.101562 7.898438 33.402344 13.078125 51.199218 15.328125v25.359375h-240zm-24-358.640625c0-8.835938 7.164063-16 16-16h256c8.835938 0 16 7.164062 16 16s-7.164062 16-16 16h-256c-8.835937 0-16-7.164062-16-16zm24 32h240v35.199219c.003907 12.953125-3.484374 25.667969-10.105468 36.800781h-219.785156c-6.625-11.132812-10.117188-23.847656-10.109376-36.800781zm25.144532 262.128906 78.46875-67.265625c5.324218-4.558593 8.386718-11.214843 8.386718-18.222656v-1.28125c.003907-7.003906-3.058593-13.664063-8.386718-18.214844l-78.46875-67.28125c-.6875-.582031-1.296875-1.246093-1.960938-1.863281h193.617188c-.671875.617188-1.273438 1.28125-1.96875 1.871094l-78.472656 67.265625c-5.3125 4.5625-8.367188 11.21875-8.359376 18.222656v1.28125c-.003906 7.003906 3.058594 13.664063 8.382813 18.214844l78.472656 67.28125c14.285157 12.246093 23.191407 29.617187 24.800781 48.367187-15.425781-2.242187-30.402343-6.902344-44.378906-13.808594-23.363281-11.597656-49.203125-17.328124-75.277344-16.695312-26.078124-.632812-51.914062 5.097656-75.28125 16.695312-13.972656 6.90625-28.949218 11.566407-44.375 13.808594 1.609376-18.75 10.515626-36.121094 24.800782-48.375zm222.855468 137.871094h-256c-8.835937 0-16-7.164062-16-16s7.164063-16 16-16h256c8.835938 0 16 7.164062 16 16s-7.164062 16-16 16zm0 0"/><path d="m151.976562 256h16v16h-16zm0 0"/><path d="m151.976562 288h16v16h-16zm0 0"/><path d="m151.976562 320h16v16h-16zm0 0"/></g><g transform="matrix(0.07845800974974472 -0.026152668615101 0.026152668615101 0.07845800974974472 114.0565508714486 17.028274504538686)" id="L1_5"><path d="m154.671875 294.382812c3.488281 5.265626 5.328125 11.351563 5.328125 17.617188 0 17.648438-14.351562 32-32 32-6.265625 0-12.351562-1.839844-17.617188-5.328125l-8.832031 13.34375c7.890625 5.222656 17.035157 7.984375 26.449219 7.984375 26.472656 0 48-21.527344 48-48 0-9.414062-2.761719-18.558594-7.984375-26.457031zm0 0"/><path d="m128 280c6.265625 0 12.359375 1.839844 17.609375 5.320312l8.839844-13.335937c-7.882813-5.222656-17.023438-7.984375-26.449219-7.984375-26.472656 0-48 21.527344-48 48 0 9.414062 2.761719 18.558594 7.984375 26.457031l13.34375-8.832031c-3.488281-5.273438-5.328125-11.359375-5.328125-17.625 0-17.648438 14.351562-32 32-32zm0 0"/><path d="m288 336v48h32v-16h-16v-32zm0 0"/><path d="m296 288c-20.246094 0-40.023438 7.054688-55.6875 19.871094l10.144531 12.386718c10.726563-8.785156 23.839844-14.210937 37.542969-15.753906v15.496094h16v-15.527344c33.320312 3.703125 59.824219 30.214844 63.527344 63.527344h-15.527344v16h15.496094c-1.542969 13.710938-6.96875 26.816406-15.753906 37.550781l12.378906 10.136719c12.816406-15.664062 19.878906-35.441406 19.878906-55.6875 0-48.519531-39.480469-88-88-88zm0 0"/><path d="m304 447.496094v-15.496094h-16v15.527344c-33.320312-3.703125-59.824219-30.214844-63.527344-63.527344h15.527344v-16h-15.496094c1.542969-13.710938 6.96875-26.816406 15.753906-37.550781l-12.378906-10.136719c-12.816406 15.664062-19.878906 35.441406-19.878906 55.6875 0 48.519531 39.480469 88 88 88 20.246094 0 40.023438-7.054688 55.6875-19.871094l-10.144531-12.386718c-10.726563 8.785156-23.832031 14.210937-37.542969 15.753906zm0 0"/><path d="m448 368h-16v-224h-48v150.6875c-4.886719-5.289062-10.238281-10.121094-16-14.464844v-96.222656h-48v74.414062c-5.207031-1.0625-10.574219-1.652343-16-2.015624v-32.398438h-48v39c-8.046875 2.855469-15.695312 6.542969-22.855469 10.96875-1.609375-4.457031-3.382812-8.832031-5.527343-13.007812l12.648437-17.714844-43.511719-43.527344-17.722656 12.65625c-5.335938-2.726562-10.910156-5.03125-16.671875-6.878906l-3.574219-21.496094h-61.5625l-3.574218 21.496094c-5.761719 1.847656-11.335938 4.152344-16.671876 6.878906l-17.71875-12.65625-43.515624 43.527344 12.648437 17.714844c-2.734375 5.328124-5.039063 10.902343-6.886719 16.671874l-21.503906 3.589844v61.554688l21.496094 3.582031c1.847656 5.769531 4.160156 11.34375 6.886718 16.671875l-12.648437 17.710938 43.511719 43.53125 17.722656-12.65625c5.335938 2.726562 10.910156 5.03125 16.671875 6.878906l3.574219 21.503906h61.5625l3.574218-21.496094c5.761719-1.847656 11.335938-4.152344 16.671876-6.878906l3.199218 2.285156c15.929688 47.625 60.867188 82.089844 113.777344 82.089844 63.472656 0 115.449219-49.558594 119.59375-112h80.40625v-304h-48zm-48-208h16v208h-.40625c-1.242188-18.695312-6.738281-36.214844-15.59375-51.609375zm-64 40h16v69.953125c-5.113281-2.714844-10.480469-4.984375-16-6.945313zm-64 40h16v16.40625c-5.425781.363281-10.792969.953125-16 2.019531zm-96.359375 155.265625c-6.992187 4.007813-14.535156 7.125-22.449219 9.269531l-4.953125 1.34375-3.023437 18.121094h-34.4375l-3.023438-18.121094-4.953125-1.34375c-7.90625-2.144531-15.457031-5.261718-22.449219-9.269531l-4.457031-2.554687-14.917969 10.664062-24.359374-24.351562 10.664062-14.933594-2.554688-4.457032c-4-6.976562-7.125-14.519531-9.269531-22.441406l-1.335937-4.953125-18.121094-3.015625v-34.445312l18.121094-3.015625 1.34375-4.953125c2.160156-7.929688 5.269531-15.480469 9.269531-22.441406l2.554687-4.457032-10.664062-14.933594 24.359375-24.351562 14.917969 10.664062 4.457031-2.554687c6.992187-4.007813 14.535156-7.125 22.449219-9.269531l4.953125-1.34375 3.023437-18.121094h34.4375l3.023438 18.121094 4.953125 1.34375c7.90625 2.144531 15.457031 5.261718 22.449219 9.269531l4.457031 2.554687 14.917969-10.664062 24.359374 24.351562-10.664062 14.933594 2.554688 4.457032c3.453124 6.015624 6.109374 12.535156 8.199218 19.289062-4.679687 3.886719-8.976562 8.199219-13.015625 12.734375-7.289062-36.664063-39.6875-64.390625-78.457031-64.390625-44.113281 0-80 35.886719-80 80s35.886719 80 80 80c17.472656 0 34.28125-5.910156 48.007812-16.214844 0 .070313-.007812.144532-.007812.214844 0 6.199219.617188 12.238281 1.527344 18.183594zm16.160156-78.554687c-6.023437 10.554687-10.535156 22.058593-13.144531 34.289062-12.082031 15.65625-30.871094 25-50.65625 25-35.289062 0-64-28.710938-64-64s28.710938-64 64-64 64 28.710938 64 64c0 1.59375-.089844 3.152344-.199219 4.710938zm104.199219 163.289062c-57.34375 0-104-46.65625-104-104s46.65625-104 104-104 104 46.65625 104 104-46.65625 104-104 104zm168-384h16v272h-16zm0 0"/><path d="m448 0v16h17.191406l-56.597656 45.28125-24.59375-24.59375-37.71875 37.71875c-3.128906-1.503906-6.585938-2.40625-10.28125-2.40625-13.230469 0-24 10.769531-24 24 0 4.136719 1.152344 7.976562 3 11.375l-41.816406 46.464844c-2.832032-1.175782-5.925782-1.839844-9.183594-1.839844-.152344 0-.289062.039062-.441406.046875l-32.167969-85.789063c5.21875-4.402343 8.609375-10.90625 8.609375-18.257812 0-13.230469-10.769531-24-24-24s-24 10.769531-24 24c0 1.726562.199219 3.40625.550781 5.039062l-65.582031 40.351563c-4.113281-3.320313-9.28125-5.390625-14.96875-5.390625-10.414062 0-19.214844 6.710938-22.527344 16h-42.945312c-3.3125-9.289062-12.113282-16-22.527344-16-13.230469 0-24 10.769531-24 24s10.769531 24 24 24c10.414062 0 19.214844-6.710938 22.527344-16h42.953125c3.3125 9.289062 12.113281 16 22.527343 16 13.230469 0 24-10.769531 24-24 0-1.726562-.199218-3.40625-.550781-5.039062l65.582031-40.351563c4.105469 3.320313 9.273438 5.390625 14.960938 5.390625.152344 0 .289062-.039062.441406-.046875l32.167969 85.78125c-5.21875 4.410156-8.609375 10.914063-8.609375 18.265625 0 13.230469 10.769531 24 24 24s24-10.769531 24-24c0-4.136719-1.144531-7.976562-3-11.375l41.816406-46.464844c2.832032 1.175782 5.925782 1.839844 9.183594 1.839844 13.230469 0 24-10.769531 24-24 0-3.695312-.902344-7.152344-2.40625-10.28125l26.40625-26.40625 23.40625 23.40625 72.59375-58.070312v23.351562h16v-48zm-424 120c-4.414062 0-8-3.59375-8-8s3.585938-8 8-8 8 3.59375 8 8-3.585938 8-8 8zm88 0c-4.414062 0-8-3.59375-8-8s3.585938-8 8-8 8 3.59375 8 8-3.585938 8-8 8zm96-72c0-4.40625 3.585938-8 8-8s8 3.59375 8 8-3.585938 8-8 8-8-3.59375-8-8zm56 136c-4.414062 0-8-3.59375-8-8s3.585938-8 8-8 8 3.59375 8 8-3.585938 8-8 8zm72-80c-4.414062 0-8-3.59375-8-8s3.585938-8 8-8 8 3.59375 8 8-3.585938 8-8 8zm0 0"/></g><g transform="matrix(-0.7378226518630981 0 0 0.7378226518630981 293.39685571193695 182.60314190387726)" id="L1_6"><path d="M42.899,4.5c-0.465-2.279-2.484-4-4.899-4c-0.553,0-1,0.447-1,1s0.447,1,1,1c1.654,0,3,1.346,3,3s-1.346,3-3,3   c-0.553,0-1,0.447-1,1s0.447,1,1,1c2.414,0,4.434-1.721,4.899-4H56v9H2v-9h14h3c0.553,0,1-0.447,1-1s-0.447-1-1-1h-1.816   c0.414-1.162,1.514-2,2.816-2c1.654,0,3,1.346,3,3s-1.346,3-3,3c-0.553,0-1,0.447-1,1s0.447,1,1,1c2.757,0,5-2.243,5-5   s-2.243-5-5-5c-2.414,0-4.434,1.721-4.899,4H0v13v40h58v-40v-13H42.899z M56,55.5H2v-38h54V55.5z"/><path d="M26,2.5c1.654,0,3,1.346,3,3s-1.346,3-3,3c-0.553,0-1,0.447-1,1s0.447,1,1,1c2.757,0,5-2.243,5-5s-2.243-5-5-5   c-0.553,0-1,0.447-1,1S25.447,2.5,26,2.5z"/><path d="M32,2.5c1.654,0,3,1.346,3,3s-1.346,3-3,3c-0.553,0-1,0.447-1,1s0.447,1,1,1c2.757,0,5-2.243,5-5s-2.243-5-5-5   c-0.553,0-1,0.447-1,1S31.447,2.5,32,2.5z"/><circle cx="22" cy="24" r="1"/><circle cx="29" cy="24" r="1"/><circle cx="36" cy="24" r="1"/><circle cx="43" cy="24" r="1"/><circle cx="50" cy="24" r="1"/><circle cx="8" cy="32" r="1"/><circle cx="15" cy="32" r="1"/><circle cx="22" cy="32" r="1"/><circle cx="29" cy="32" r="1"/><circle cx="36" cy="32" r="1"/><circle cx="43" cy="32" r="1"/><circle cx="50" cy="32" r="1"/><circle cx="8" cy="39" r="1"/><circle cx="15" cy="39" r="1"/><circle cx="22" cy="39" r="1"/><circle cx="29" cy="39" r="1"/><circle cx="36" cy="39" r="1"/><circle cx="43" cy="39" r="1"/><circle cx="50" cy="39" r="1"/><circle cx="8" cy="47" r="1"/><circle cx="15" cy="47" r="1"/><circle cx="22" cy="47" r="1"/><circle cx="29" cy="47" r="1"/><circle cx="36" cy="47" r="1"/></g><g transform="matrix(0.0916391909122467 0 0 0.0916391909122467 17.73970651626587 230.73970651626587)" id="L1_7"><path d="m224 0h16v48h-16zm0 0"/><path d="m164.230469 9.976562 15.457031-4.140624 12.417969 46.367187-15.453125 4.136719zm0 0"/><path d="m109.074219 35.089844 13.855469-8.003906 24 41.5625-13.855469 8zm0 0"/><path d="m62.292969 73.613281 11.316406-11.316406 33.933594 33.9375-11.3125 11.3125zm0 0"/><path d="m27.078125 122.925781 8-13.855469 41.5625 24-8 13.855469zm0 0"/><path d="m5.835938 179.683594 4.140624-15.457032 46.367188 12.421876-4.140625 15.453124zm0 0"/><path d="m0 224h48v16h-48zm0 0"/><path d="m5.832031 284.324219 46.363281-12.421875 4.140626 15.453125-46.363282 12.421875zm0 0"/><path d="m27.085938 341.074219 41.5625-24 8 13.855469-41.5625 24zm0 0"/><path d="m62.296875 390.390625 33.933594-33.933594 11.316406 11.3125-33.9375 33.933594zm0 0"/><path d="m109.066406 428.917969 23.992188-41.5625 13.859375 7.996093-23.992188 41.566407zm0 0"/><path d="m164.222656 454.027344 12.421875-46.367188 15.457031 4.140625-12.425781 46.367188zm0 0"/><path d="m224 416h16v48h-16zm0 0"/><path d="m271.902344 411.804688 15.457031-4.140626 12.417969 46.363282-15.453125 4.140625zm0 0"/><path d="m317.074219 395.347656 13.855469-8 24 41.5625-13.855469 8zm0 0"/><path d="m356.453125 367.765625 11.3125-11.3125 33.9375 33.933594-11.3125 11.316406zm0 0"/><path d="m387.34375 330.929688 8-13.855469 41.558594 24-8 13.855469zm0 0"/><path d="m407.652344 287.351562 4.140625-15.457031 46.363281 12.421875-4.136719 15.453125zm0 0"/><path d="m416 224h48v16h-48zm0 0"/><path d="m407.660156 176.660156 46.363282-12.421875 4.140624 15.453125-46.363281 12.421875zm0 0"/><path d="m387.355469 133.074219 41.558593-24 8.003907 13.855469-41.5625 24zm0 0"/><path d="m356.453125 96.230469 33.933594-33.933594 11.3125 11.3125-33.933594 33.933594zm0 0"/><path d="m317.070312 68.65625 23.992188-41.566406 13.855469 8-23.992188 41.566406zm0 0"/><path d="m271.894531 52.207031 12.421875-46.363281 15.457032 4.140625-12.425782 46.363281zm0 0"/><path d="m262.863281 240h17.136719v-16h-17.136719c-2.914062-11.203125-11.660156-19.949219-22.863281-22.863281v-97.136719h-16v97.136719c-11.203125 2.914062-19.949219 11.660156-22.863281 22.863281h-81.136719v16h81.136719c2.914062 11.203125 11.660156 19.949219 22.863281 22.863281v17.136719h16v-17.136719c11.203125-2.914062 19.949219-11.660156 22.863281-22.863281zm-30.863281 8c-8.835938 0-16-7.164062-16-16s7.164062-16 16-16 16 7.164062 16 16-7.164062 16-16 16zm0 0"/></g></defs><g fi:class="KUsePattern"><pattern id="pattern_L1_0" width="350" height="350" patternUnits="userSpaceOnUse"><use xlink:href="#L1_0" x="-350" y="-350"/><use xlink:href="#L1_0" x="0" y="-350"/><use xlink:href="#L1_0" x="350" y="-350"/><use xlink:href="#L1_0" x="-350" y="0"/><use xlink:href="#L1_0" x="0" y="0"/><use xlink:href="#L1_0" x="350" y="0"/><use xlink:href="#L1_0" x="-350" y="350"/><use xlink:href="#L1_0" x="0" y="350"/><use xlink:href="#L1_0" x="350" y="350"/></pattern><rect x="0" y="0" width="100%" height="100%" fill="url(#pattern_L1_0)"/></g><g fi:class="KUsePattern"><pattern id="pattern_L1_1" width="350" height="350" patternUnits="userSpaceOnUse"><use xlink:href="#L1_1" x="-350" y="-350"/><use xlink:href="#L1_1" x="0" y="-350"/><use xlink:href="#L1_1" x="350" y="-350"/><use xlink:href="#L1_1" x="-350" y="0"/><use xlink:href="#L1_1" x="0" y="0"/><use xlink:href="#L1_1" x="350" y="0"/><use xlink:href="#L1_1" x="-350" y="350"/><use xlink:href="#L1_1" x="0" y="350"/><use xlink:href="#L1_1" x="350" y="350"/></pattern><rect x="0" y="0" width="100%" height="100%" fill="url(#pattern_L1_1)"/></g><g fi:class="KUsePattern"><pattern id="pattern_L1_2" width="350" height="350" patternUnits="userSpaceOnUse"><use xlink:href="#L1_2" x="-350" y="-350"/><use xlink:href="#L1_2" x="0" y="-350"/><use xlink:href="#L1_2" x="350" y="-350"/><use xlink:href="#L1_2" x="-350" y="0"/><use xlink:href="#L1_2" x="0" y="0"/><use xlink:href="#L1_2" x="350" y="0"/><use xlink:href="#L1_2" x="-350" y="350"/><use xlink:href="#L1_2" x="0" y="350"/><use xlink:href="#L1_2" x="350" y="350"/></pattern><rect x="0" y="0" width="100%" height="100%" fill="url(#pattern_L1_2)"/></g><g fi:class="KUsePattern"><pattern id="pattern_L1_3" width="350" height="350" patternUnits="userSpaceOnUse"><use xlink:href="#L1_3" x="-350" y="-350"/><use xlink:href="#L1_3" x="0" y="-350"/><use xlink:href="#L1_3" x="350" y="-350"/><use xlink:href="#L1_3" x="-350" y="0"/><use xlink:href="#L1_3" x="0" y="0"/><use xlink:href="#L1_3" x="350" y="0"/><use xlink:href="#L1_3" x="-350" y="350"/><use xlink:href="#L1_3" x="0" y="350"/><use xlink:href="#L1_3" x="350" y="350"/></pattern><rect x="0" y="0" width="100%" height="100%" fill="url(#pattern_L1_3)"/></g><g fi:class="KUsePattern"><pattern id="pattern_L1_4" width="350" height="350" patternUnits="userSpaceOnUse"><use xlink:href="#L1_4" x="-350" y="-350"/><use xlink:href="#L1_4" x="0" y="-350"/><use xlink:href="#L1_4" x="350" y="-350"/><use xlink:href="#L1_4" x="-350" y="0"/><use xlink:href="#L1_4" x="0" y="0"/><use xlink:href="#L1_4" x="350" y="0"/><use xlink:href="#L1_4" x="-350" y="350"/><use xlink:href="#L1_4" x="0" y="350"/><use xlink:href="#L1_4" x="350" y="350"/></pattern><rect x="0" y="0" width="100%" height="100%" fill="url(#pattern_L1_4)"/></g><g fi:class="KUsePattern"><pattern id="pattern_L1_5" width="350" height="350" patternUnits="userSpaceOnUse"><use xlink:href="#L1_5" x="-350" y="-350"/><use xlink:href="#L1_5" x="0" y="-350"/><use xlink:href="#L1_5" x="350" y="-350"/><use xlink:href="#L1_5" x="-350" y="0"/><use xlink:href="#L1_5" x="0" y="0"/><use xlink:href="#L1_5" x="350" y="0"/><use xlink:href="#L1_5" x="-350" y="350"/><use xlink:href="#L1_5" x="0" y="350"/><use xlink:href="#L1_5" x="350" y="350"/></pattern><rect x="0" y="0" width="100%" height="100%" fill="url(#pattern_L1_5)"/></g><g fi:class="KUsePattern"><pattern id="pattern_L1_6" width="350" height="350" patternUnits="userSpaceOnUse"><use xlink:href="#L1_6" x="-350" y="-350"/><use xlink:href="#L1_6" x="0" y="-350"/><use xlink:href="#L1_6" x="350" y="-350"/><use xlink:href="#L1_6" x="-350" y="0"/><use xlink:href="#L1_6" x="0" y="0"/><use xlink:href="#L1_6" x="350" y="0"/><use xlink:href="#L1_6" x="-350" y="350"/><use xlink:href="#L1_6" x="0" y="350"/><use xlink:href="#L1_6" x="350" y="350"/></pattern><rect x="0" y="0" width="100%" height="100%" fill="url(#pattern_L1_6)"/></g><g fi:class="KUsePattern"><pattern id="pattern_L1_7" width="350" height="350" patternUnits="userSpaceOnUse"><use xlink:href="#L1_7" x="-350" y="-350"/><use xlink:href="#L1_7" x="0" y="-350"/><use xlink:href="#L1_7" x="350" y="-350"/><use xlink:href="#L1_7" x="-350" y="0"/><use xlink:href="#L1_7" x="0" y="0"/><use xlink:href="#L1_7" x="350" y="0"/><use xlink:href="#L1_7" x="-350" y="350"/><use xlink:href="#L1_7" x="0" y="350"/><use xlink:href="#L1_7" x="350" y="350"/></pattern><rect x="0" y="0" width="100%" height="100%" fill="url(#pattern_L1_7)"/></g></svg>